HIERARCHY
ROOT mixamorig:Hips
{
	OFFSET -0.000008 104.274872 1.554316
	CHANNELS 6 Xposition Yposition Zposition Xrotation Yrotation Zrotation
	JOINT mixamorig:Spine
	{
		OFFSET -0.000005 10.181595 0.131519
		CHANNELS 6 Xposition Yposition Zposition Xrotation Yrotation Zrotation
		JOINT mixamorig:Spine1
		{
			OFFSET -0.000000 9.893959 -1.470707
			CHANNELS 6 Xposition Yposition Zposition Xrotation Yrotation Zrotation
			JOINT mixamorig:Spine2
			{
				OFFSET -0.000000 9.220757 -1.370641
				CHANNELS 6 Xposition Yposition Zposition Xrotation Yrotation Zrotation
				JOINT mixamorig:Neck
				{
					OFFSET 0.000001 16.740417 -2.049036
					CHANNELS 6 Xposition Yposition Zposition Xrotation Yrotation Zrotation
					JOINT mixamorig:Head
					{
						OFFSET 0.000000 9.617874 1.685006
						CHANNELS 6 Xposition Yposition Zposition Xrotation Yrotation Zrotation
						JOINT mixamorig:HeadTop_End
						{
							OFFSET 0.000002 22.037354 7.501101
							CHANNELS 6 Xposition Yposition Zposition Xrotation Yrotation Zrotation
							End Site
							{
								OFFSET 0.000168 2310.654297 -282.823242
							}
						}
					}
				}
				JOINT mixamorig:RightShoulder
				{
					OFFSET -4.569970 11.014908 -2.160885
					CHANNELS 6 Xposition Yposition Zposition Xrotation Yrotation Zrotation
					JOINT mixamorig:RightArm
					{
						OFFSET -10.592851 -0.524811 -2.232101
						CHANNELS 6 Xposition Yposition Zposition Xrotation Yrotation Zrotation
						JOINT mixamorig:RightForeArm
						{
							OFFSET -27.841511 0.000031 -0.000004
							CHANNELS 6 Xposition Yposition Zposition Xrotation Yrotation Zrotation
							JOINT mixamorig:RightHand
							{
								OFFSET -28.328831 -0.000015 0.000015
								CHANNELS 6 Xposition Yposition Zposition Xrotation Yrotation Zrotation
								JOINT mixamorig:RightHandThumb1
								{
									OFFSET -2.464806 -1.573990 2.681852
									CHANNELS 6 Xposition Yposition Zposition Xrotation Yrotation Zrotation
									JOINT mixamorig:RightHandThumb2
									{
										OFFSET -3.215179 -1.872803 1.924282
										CHANNELS 6 Xposition Yposition Zposition Xrotation Yrotation Zrotation
										JOINT mixamorig:RightHandThumb3
										{
											OFFSET -2.654831 -1.527969 1.512609
											CHANNELS 6 Xposition Yposition Zposition Xrotation Yrotation Zrotation
											JOINT mixamorig:RightHandThumb4
											{
												OFFSET -2.018814 -1.152008 1.108052
												CHANNELS 6 Xposition Yposition Zposition Xrotation Yrotation Zrotation
												End Site
												{
													OFFSET -188.809540 -114.533607 132.431396
												}
											}
										}
									}
								}
								JOINT mixamorig:RightHandIndex1
								{
									OFFSET -9.108284 -0.517868 2.259835
									CHANNELS 6 Xposition Yposition Zposition Xrotation Yrotation Zrotation
									JOINT mixamorig:RightHandIndex2
									{
										OFFSET -3.699989 0.000000 0.001215
										CHANNELS 6 Xposition Yposition Zposition Xrotation Yrotation Zrotation
										JOINT mixamorig:RightHandIndex3
										{
											OFFSET -2.850006 0.000031 -0.000522
											CHANNELS 6 Xposition Yposition Zposition Xrotation Yrotation Zrotation
											JOINT mixamorig:RightHandIndex4
											{
												OFFSET -2.772186 -0.000015 -0.000020
												CHANNELS 6 Xposition Yposition Zposition Xrotation Yrotation Zrotation
												End Site
												{
													OFFSET -277.218445 0.000000 -0.050231
												}
											}
										}
									}
								}
								JOINT mixamorig:RightHandMiddle1
								{
									OFFSET -9.532516 -0.000031 -0.000023
									CHANNELS 6 Xposition Yposition Zposition Xrotation Yrotation Zrotation
									JOINT mixamorig:RightHandMiddle2
									{
										OFFSET -3.700005 -0.000015 0.003713
										CHANNELS 6 Xposition Yposition Zposition Xrotation Yrotation Zrotation
										JOINT mixamorig:RightHandMiddle3
										{
											OFFSET -2.949974 0.000015 -0.002054
											CHANNELS 6 Xposition Yposition Zposition Xrotation Yrotation Zrotation
											JOINT mixamorig:RightHandMiddle4
											{
												OFFSET -2.946640 0.000000 -0.000156
												CHANNELS 6 Xposition Yposition Zposition Xrotation Yrotation Zrotation
												End Site
												{
													OFFSET -294.664337 0.000000 -0.113670
												}
											}
										}
									}
								}
								JOINT mixamorig:RightHandRing1
								{
									OFFSET -9.103600 -0.043076 -1.865134
									CHANNELS 6 Xposition Yposition Zposition Xrotation Yrotation Zrotation
									JOINT mixamorig:RightHandRing2
									{
										OFFSET -3.379288 0.000000 -0.001055
										CHANNELS 6 Xposition Yposition Zposition Xrotation Yrotation Zrotation
										JOINT mixamorig:RightHandRing3
										{
											OFFSET -2.889687 -0.000015 0.000379
											CHANNELS 6 Xposition Yposition Zposition Xrotation Yrotation Zrotation
											JOINT mixamorig:RightHandRing4
											{
												OFFSET -2.638809 -0.000015 0.000941
												CHANNELS 6 Xposition Yposition Zposition Xrotation Yrotation Zrotation
												End Site
												{
													OFFSET -263.880371 0.000000 0.516020
												}
											}
										}
									}
								}
								JOINT mixamorig:RightHandPinky1
								{
									OFFSET -8.076683 -0.486710 -3.806280
									CHANNELS 6 Xposition Yposition Zposition Xrotation Yrotation Zrotation
									JOINT mixamorig:RightHandPinky2
									{
										OFFSET -3.600014 -0.000015 -0.003747
										CHANNELS 6 Xposition Yposition Zposition Xrotation Yrotation Zrotation
										JOINT mixamorig:RightHandPinky3
										{
											OFFSET -2.099983 0.000000 -0.005739
											CHANNELS 6 Xposition Yposition Zposition Xrotation Yrotation Zrotation
											JOINT mixamorig:RightHandPinky4
											{
												OFFSET -2.115768 -0.000031 -0.003680
												CHANNELS 6 Xposition Yposition Zposition Xrotation Yrotation Zrotation
												End Site
												{
													OFFSET -211.577087 0.000000 -0.350686
												}
											}
										}
									}
								}
							}
						}
					}
				}
				JOINT mixamorig:LeftShoulder
				{
					OFFSET 4.570447 11.014725 -2.160855
					CHANNELS 6 Xposition Yposition Zposition Xrotation Yrotation Zrotation
					JOINT mixamorig:LeftArm
					{
						OFFSET 10.592371 -0.524597 -2.232119
						CHANNELS 6 Xposition Yposition Zposition Xrotation Yrotation Zrotation
						JOINT mixamorig:LeftForeArm
						{
							OFFSET 27.841532 -0.000031 0.000026
							CHANNELS 6 Xposition Yposition Zposition Xrotation Yrotation Zrotation
							JOINT mixamorig:LeftHand
							{
								OFFSET 28.328846 -0.000061 0.000022
								CHANNELS 6 Xposition Yposition Zposition Xrotation Yrotation Zrotation
								JOINT mixamorig:LeftHandThumb1
								{
									OFFSET 2.466141 -1.576172 2.681732
									CHANNELS 6 Xposition Yposition Zposition Xrotation Yrotation Zrotation
									JOINT mixamorig:LeftHandThumb2
									{
										OFFSET 3.217812 -1.872070 1.916482
										CHANNELS 6 Xposition Yposition Zposition Xrotation Yrotation Zrotation
										JOINT mixamorig:LeftHandThumb3
										{
											OFFSET 2.656029 -1.528778 1.514513
											CHANNELS 6 Xposition Yposition Zposition Xrotation Yrotation Zrotation
											JOINT mixamorig:LeftHandThumb4
											{
												OFFSET 2.020889 -1.154053 1.115139
												CHANNELS 6 Xposition Yposition Zposition Xrotation Yrotation Zrotation
												End Site
												{
													OFFSET 190.885437 -115.081749 130.048782
												}
											}
										}
									}
								}
								JOINT mixamorig:LeftHandIndex1
								{
									OFFSET 9.109314 -0.518021 2.259871
									CHANNELS 6 Xposition Yposition Zposition Xrotation Yrotation Zrotation
									JOINT mixamorig:LeftHandIndex2
									{
										OFFSET 3.699989 0.000000 -0.000322
										CHANNELS 6 Xposition Yposition Zposition Xrotation Yrotation Zrotation
										JOINT mixamorig:LeftHandIndex3
										{
											OFFSET 2.850006 0.000000 0.000352
											CHANNELS 6 Xposition Yposition Zposition Xrotation Yrotation Zrotation
											JOINT mixamorig:LeftHandIndex4
											{
												OFFSET 2.774864 -0.000031 -0.000027
												CHANNELS 6 Xposition Yposition Zposition Xrotation Yrotation Zrotation
												End Site
												{
													OFFSET 277.486267 0.000000 -0.009857
												}
											}
										}
									}
								}
								JOINT mixamorig:LeftHandMiddle1
								{
									OFFSET 9.533394 0.000061 0.000044
									CHANNELS 6 Xposition Yposition Zposition Xrotation Yrotation Zrotation
									JOINT mixamorig:LeftHandMiddle2
									{
										OFFSET 3.699989 -0.000015 -0.000231
										CHANNELS 6 Xposition Yposition Zposition Xrotation Yrotation Zrotation
										JOINT mixamorig:LeftHandMiddle3
										{
											OFFSET 2.949997 -0.000015 -0.000059
											CHANNELS 6 Xposition Yposition Zposition Xrotation Yrotation Zrotation
											JOINT mixamorig:LeftHandMiddle4
											{
												OFFSET 2.952896 0.000031 0.000063
												CHANNELS 6 Xposition Yposition Zposition Xrotation Yrotation Zrotation
												End Site
												{
													OFFSET 295.289337 0.000000 0.022810
												}
											}
										}
									}
								}
								JOINT mixamorig:LeftHandRing1
								{
									OFFSET 9.104523 -0.042999 -1.865074
									CHANNELS 6 Xposition Yposition Zposition Xrotation Yrotation Zrotation
									JOINT mixamorig:LeftHandRing2
									{
										OFFSET 3.150009 -0.000031 0.000043
										CHANNELS 6 Xposition Yposition Zposition Xrotation Yrotation Zrotation
										JOINT mixamorig:LeftHandRing3
										{
											OFFSET 2.949982 -0.000015 0.000040
											CHANNELS 6 Xposition Yposition Zposition Xrotation Yrotation Zrotation
											JOINT mixamorig:LeftHandRing4
											{
												OFFSET 2.644348 0.000000 0.000057
												CHANNELS 6 Xposition Yposition Zposition Xrotation Yrotation Zrotation
												End Site
												{
													OFFSET 264.434631 0.000000 0.012105
												}
											}
										}
									}
								}
								JOINT mixamorig:LeftHandPinky1
								{
									OFFSET 8.077789 -0.486847 -3.806259
									CHANNELS 6 Xposition Yposition Zposition Xrotation Yrotation Zrotation
									JOINT mixamorig:LeftHandPinky2
									{
										OFFSET 3.599953 0.000031 0.014727
										CHANNELS 6 Xposition Yposition Zposition Xrotation Yrotation Zrotation
										JOINT mixamorig:LeftHandPinky3
										{
											OFFSET 2.100021 0.000015 0.007705
											CHANNELS 6 Xposition Yposition Zposition Xrotation Yrotation Zrotation
											JOINT mixamorig:LeftHandPinky4
											{
												OFFSET 2.125504 0.000031 0.007517
												CHANNELS 6 Xposition Yposition Zposition Xrotation Yrotation Zrotation
												End Site
												{
													OFFSET 212.550781 0.000000 0.625752
												}
											}
										}
									}
								}
							}
						}
					}
				}
			}
		}
	}
	JOINT mixamorig:RightUpLeg
	{
		OFFSET -8.207787 -6.751648 -1.599560
		CHANNELS 6 Xposition Yposition Zposition Xrotation Yrotation Zrotation
		JOINT mixamorig:RightLeg
		{
			OFFSET -0.000002 -44.370117 0.345942
			CHANNELS 6 Xposition Yposition Zposition Xrotation Yrotation Zrotation
			JOINT mixamorig:RightFoot
			{
				OFFSET 0.000003 -44.423679 -3.043532
				CHANNELS 6 Xposition Yposition Zposition Xrotation Yrotation Zrotation
				JOINT mixamorig:RightToeBase
				{
					OFFSET -0.000002 -8.728671 10.710558
					CHANNELS 6 Xposition Yposition Zposition Xrotation Yrotation Zrotation
					JOINT mixamorig:RightToe_End
					{
						OFFSET -0.000001 -0.000679 9.278119
						CHANNELS 6 Xposition Yposition Zposition Xrotation Yrotation Zrotation
						End Site
						{
							OFFSET 0.000000 -0.067690 927.812134
						}
					}
				}
			}
		}
	}
	JOINT mixamorig:LeftUpLeg
	{
		OFFSET 8.207793 -6.751686 -1.599556
		CHANNELS 6 Xposition Yposition Zposition Xrotation Yrotation Zrotation
		JOINT mixamorig:LeftLeg
		{
			OFFSET -0.000004 -44.370014 0.346954
			CHANNELS 6 Xposition Yposition Zposition Xrotation Yrotation Zrotation
			JOINT mixamorig:LeftFoot
			{
				OFFSET -0.000001 -44.423672 -3.044401
				CHANNELS 6 Xposition Yposition Zposition Xrotation Yrotation Zrotation
				JOINT mixamorig:LeftToeBase
				{
					OFFSET -0.000002 -8.728669 10.710558
					CHANNELS 6 Xposition Yposition Zposition Xrotation Yrotation Zrotation
					JOINT mixamorig:LeftToe_End
					{
						OFFSET -0.000003 -0.000679 9.278133
						CHANNELS 6 Xposition Yposition Zposition Xrotation Yrotation Zrotation
						End Site
						{
							OFFSET 0.000000 -0.068021 927.813477
						}
					}
				}
			}
		}
	}
}
MOTION
Frames: 3
Frame Time: 0.033333
0.000006 104.270477 1.554256 0.000010 0.000003 -0.000113 -0.000005 10.181587 0.131522 0.000001 -0.000003 0.000084 -0.000000 9.893967 -1.470711 0.000001 0.000000 -0.000000 -0.000000 9.220802 -1.370642 0.000000 -0.000000 -0.000000 0.000001 16.740433 -2.049030 0.000000 -0.000000 -0.000000 0.000000 9.617859 1.685014 0.000000 0.000000 0.000000 0.000002 22.037384 7.501101 0.000000 -0.000000 0.000000 -4.569968 11.014880 -2.160881 0.000008 0.000001 -0.000038 -10.592792 -0.524844 -2.231760 75.161143 62.048901 -49.673917 -27.841501 -0.000009 0.000573 40.358792 103.786220 -50.215558 -28.328829 0.000022 0.000029 -0.000326 -0.000044 0.000007 -2.464736 -1.574185 2.682032 117.546941 -167.383443 161.965218 -3.215133 -1.872977 1.924402 305.485893 -9.192548 -15.301606 -2.654837 -1.528204 1.512724 310.075097 -2.066196 -13.676796 -2.018843 -1.152000 1.108063 -0.000004 -0.000003 0.000009 -9.108404 -0.517965 2.260114 -48.909605 38.002394 17.800139 -3.700115 -0.000086 0.001456 -37.004698 39.530085 13.716242 -2.850131 -0.000084 -0.000324 -37.263893 29.526857 10.154876 -2.772164 -0.000015 -0.000021 0.000002 -0.000001 0.000000 -9.532619 -0.000130 0.000209 -41.289709 33.354481 12.879878 -3.700118 -0.000098 0.003944 -37.794954 32.712207 11.475416 -2.950106 -0.000108 -0.001847 -35.363694 30.367861 9.889626 -2.946623 0.000014 -0.000158 -0.000002 0.000000 -0.000001 -9.103730 -0.043132 -1.864876 -35.245897 40.521129 13.380271 -3.379367 -0.000101 -0.000852 -36.325084 26.864292 8.960525 -2.889809 -0.000113 0.000582 -39.666269 22.300370 8.137649 -2.638824 -0.000014 0.000944 -0.000002 0.000000 -0.000000 -8.076811 -0.486686 -3.806063 -14.246597 47.748985 6.373212 -3.600103 -0.000146 -0.003541 -32.829861 31.104647 9.383887 -2.100087 -0.000108 -0.005514 -38.438235 29.096643 10.331724 -2.115783 -0.000055 -0.003680 -0.000000 0.000000 -0.000003 4.570446 11.014691 -2.160851 -0.000018 0.000010 -0.000021 10.592485 -0.524576 -2.232363 41.049334 -63.379928 26.028403 27.841831 -0.000043 -0.000128 185.367400 -72.802980 187.275427 28.328842 -0.000031 0.000018 0.000020 -0.000089 -0.000001 2.465852 -1.576094 2.681852 -58.105184 160.828852 35.592187 3.217670 -1.872086 1.916532 174.920052 54.379477 134.444733 2.656047 -1.528764 1.514609 228.388016 40.857252 69.354677 2.020894 -1.154058 1.115151 0.000000 0.000004 0.000004 9.109086 -0.517816 2.260028 24.179653 -157.844552 95.141530 3.700120 0.000099 -0.000354 123.620413 -35.952094 62.411086 2.850062 0.000114 0.000220 242.665392 -163.278828 190.224498 2.774898 -0.000036 -0.000030 -0.000001 0.000001 0.000002 9.533293 0.000004 0.000148 177.461060 -36.065216 172.188536 3.700023 0.000056 -0.000356 232.376068 -169.612954 185.117661 2.950001 -0.000009 -0.000137 197.444732 -188.527524 178.689524 2.952871 -0.000034 0.000068 -0.000000 0.000000 0.000001 9.104609 -0.043001 -1.865040 158.255032 -35.373078 117.882085 3.149994 0.000099 -0.000115 46.557602 8.830316 -3.804683 2.949933 0.000028 -0.000077 368.863710 26.433537 357.914125 2.644318 0.000043 0.000077 -0.000000 -0.000000 -0.000000 8.077917 -0.486768 -3.806239 162.661461 -15.503017 86.764310 3.599896 0.000123 0.014513 55.355722 19.199293 -10.015355 2.099948 0.000018 0.007610 368.761312 29.615697 -2.399216 2.125499 -0.000029 0.007513 0.000001 -0.000000 -0.000001 -8.207786 -6.751667 -1.599560 -0.077001 -0.000003 0.000080 -0.000002 -44.370110 0.345938 0.153719 -0.000000 -0.000000 0.000000 -44.423679 -3.043532 -0.076700 0.000000 -0.000002 -0.000006 -8.728667 10.710559 -0.000009 -0.000000 -0.000000 -0.000001 -0.000679 9.278123 0.000000 -0.000000 -0.000000 8.207792 -6.751710 -1.599556 -0.074518 -0.000003 0.000081 -0.000002 -44.370014 0.346960 0.148822 0.000002 0.000000 -0.000001 -44.423664 -3.044403 -0.074314 0.000000 -0.000002 -0.000004 -8.728671 10.710558 0.000007 -0.000000 -0.000000 0.000000 -0.000680 9.278137 -0.000000 0.000000 -0.000001 
0.000006 104.270477 1.554256 0.000010 0.000003 -0.000113 -0.000005 10.181587 0.131522 0.000001 -0.000003 0.000084 -0.000000 9.893967 -1.470711 0.000001 0.000000 -0.000000 -0.000000 9.220802 -1.370642 0.000000 -0.000000 -0.000000 0.000001 16.740433 -2.049030 0.000000 -0.000000 -0.000000 0.000000 9.617859 1.685014 0.000000 0.000000 0.000000 0.000002 22.037384 7.501101 0.000000 -0.000000 0.000000 -4.569968 11.014880 -2.160881 0.000008 0.000001 -0.000038 -10.592789 -0.524836 -2.231758 75.529106 62.345741 -50.221910 -27.841484 -0.000016 0.000583 40.458776 104.404093 -50.826306 -28.328829 0.000007 0.000028 -0.000320 -0.000045 0.000007 -2.464696 -1.574221 2.682017 111.618904 -159.378762 158.623794 -3.215111 -1.872992 1.924401 303.894541 -11.205405 -15.982106 -2.654848 -1.528174 1.512730 310.971519 -1.047353 -13.391908 -2.018818 -1.152026 1.108067 -0.000007 -0.000001 -0.000002 -9.108397 -0.517967 2.260101 -51.989457 34.220006 17.075451 -3.700100 -0.000071 0.001470 -40.982518 36.086898 13.883338 -2.850092 -0.000077 -0.000294 -47.143246 27.141503 12.023936 -2.772162 0.000002 -0.000010 0.000000 -0.000001 0.000002 -9.532615 -0.000168 0.000199 -45.657844 28.592557 12.256170 -3.700102 -0.000114 0.003930 -40.444467 28.893281 10.838300 -2.950085 -0.000144 -0.001852 -41.509150 28.491861 10.991157 -2.946647 -0.000004 -0.000156 -0.000002 -0.000002 -0.000000 -9.103710 -0.043183 -1.864898 -42.910476 32.974698 13.269051 -3.379339 -0.000130 -0.000885 -38.778693 19.326978 6.861351 -2.889781 -0.000099 0.000587 -43.689909 18.290251 7.393181 -2.638807 -0.000004 0.000941 0.000000 -0.000000 0.000002 -8.076798 -0.486754 -3.806093 -26.078637 39.575209 9.546596 -3.600073 -0.000158 -0.003578 -37.011019 21.824217 7.350298 -2.100065 -0.000125 -0.005540 -37.670757 21.884157 7.523297 -2.115767 -0.000040 -0.003672 0.000002 0.000001 -0.000004 4.570446 11.014691 -2.160851 -0.000018 0.000010 -0.000021 10.592484 -0.524569 -2.232360 41.754883 -62.787730 26.205684 27.841827 -0.000005 -0.000131 185.388956 -71.284745 187.510358 28.328831 -0.000013 0.000021 0.000021 -0.000089 0.000000 2.465869 -1.576082 2.681866 -56.067920 157.328449 29.634931 3.217683 -1.872067 1.916536 177.992107 52.913298 129.659216 2.656034 -1.528790 1.514606 226.967951 38.436941 68.971202 2.020868 -1.154085 1.115149 -0.000000 0.000004 0.000003 9.109080 -0.517777 2.260047 27.560781 -156.224800 98.722140 3.700112 0.000139 -0.000392 109.692913 -30.559356 42.432287 2.850019 0.000102 0.000210 241.441286 -168.961340 186.572027 2.774862 -0.000009 -0.000027 -0.000000 0.000000 -0.000002 9.533239 0.000055 0.000158 182.799822 -34.017245 189.113649 3.700018 0.000111 -0.000375 243.062172 -170.538868 185.811471 2.950004 0.000024 -0.000176 207.472597 -188.898293 177.821134 2.952875 -0.000027 0.000048 0.000001 0.000001 -0.000001 9.104646 -0.042967 -1.865058 154.087319 -33.586523 105.366330 3.149973 0.000135 -0.000125 50.252953 9.276509 -4.357528 2.949955 0.000010 -0.000072 373.443434 25.849811 356.901235 2.644326 0.000029 0.000057 0.000001 -0.000001 -0.000000 8.077931 -0.486664 -3.806262 156.111555 -14.861083 65.939903 3.599896 0.000128 0.014531 57.245243 19.782081 -10.744023 2.099968 -0.000000 0.007620 371.131634 30.972207 -3.170018 2.125503 -0.000016 0.007502 -0.000002 0.000001 0.000000 -8.207786 -6.751667 -1.599560 -0.077001 -0.000003 0.000080 -0.000002 -44.370110 0.345938 0.153719 -0.000000 -0.000000 0.000000 -44.423679 -3.043532 -0.076700 0.000000 -0.000002 -0.000006 -8.728667 10.710559 -0.000009 -0.000000 -0.000000 -0.000001 -0.000679 9.278123 0.000000 -0.000000 -0.000000 8.207792 -6.751710 -1.599556 -0.074518 -0.000003 0.000081 -0.000002 -44.370014 0.346960 0.148822 0.000002 0.000000 -0.000001 -44.423664 -3.044403 -0.074314 0.000000 -0.000002 -0.000004 -8.728671 10.710558 0.000007 -0.000000 -0.000000 0.000000 -0.000680 9.278137 -0.000000 0.000000 -0.000001 
0.000006 104.270477 1.554256 0.000010 0.000003 -0.000113 -0.000005 10.181587 0.131522 0.000001 -0.000003 0.000084 -0.000000 9.893967 -1.470711 0.000001 0.000000 -0.000000 -0.000000 9.220802 -1.370642 0.000000 -0.000000 -0.000000 0.000001 16.740433 -2.049030 0.000000 -0.000000 -0.000000 0.000000 9.617859 1.685014 0.000000 0.000000 0.000000 0.000002 22.037384 7.501101 0.000000 -0.000000 0.000000 -4.569968 11.014880 -2.160881 0.000008 0.000001 -0.000038 -10.592794 -0.524848 -2.231762 75.612947 60.181767 -48.416025 -27.841488 0.000019 0.000589 40.008499 104.459062 -50.331613 -28.328838 0.000020 0.000028 -0.000321 -0.000043 0.000007 -2.464669 -1.574215 2.682053 106.378011 -153.046822 155.173743 -3.215143 -1.872985 1.924393 305.743719 -8.826051 -15.193672 -2.654855 -1.528183 1.512729 312.075714 1.163375 -13.035892 -2.018831 -1.151999 1.108056 -0.000004 0.000001 0.000004 -9.108395 -0.517982 2.260076 -47.041815 26.645647 11.774311 -3.700102 -0.000087 0.001431 -43.033460 30.596778 12.309831 -2.850104 -0.000082 -0.000297 -45.536219 23.888290 10.147158 -2.772156 -0.000003 -0.000016 0.000001 -0.000004 0.000000 -9.532589 -0.000173 0.000209 -50.339990 24.560078 11.701481 -3.700082 -0.000129 0.003934 -46.030690 24.085250 10.344123 -2.950082 -0.000140 -0.001867 -45.505312 22.848622 9.687392 -2.946628 -0.000012 -0.000159 0.000001 -0.000000 -0.000002 -9.103696 -0.043173 -1.864891 -51.188248 26.812377 13.020577 -3.379351 -0.000147 -0.000823 -50.866007 19.897241 9.539803 -2.889764 -0.000122 0.000610 -53.226558 17.775933 8.972419 -2.638808 -0.000033 0.000936 -0.000001 -0.000000 -0.000001 -8.076790 -0.486789 -3.806079 -36.662242 30.088967 10.176263 -3.600070 -0.000192 -0.003538 -47.351383 19.307790 8.461434 -2.100059 -0.000149 -0.005538 -48.592612 18.580218 8.397926 -2.115777 -0.000016 -0.003676 0.000001 -0.000000 -0.000009 4.570446 11.014691 -2.160851 -0.000018 0.000010 -0.000021 10.592492 -0.524561 -2.232366 44.974812 -63.109438 28.526907 27.841837 -0.000045 -0.000129 186.930898 -68.132933 190.235153 28.328838 -0.000014 0.000026 0.000017 -0.000089 0.000000 2.466059 -1.576193 2.681869 11.004414 108.945731 -56.994766 3.217690 -1.872076 1.916544 171.562235 48.646059 135.521444 2.655771 -1.528781 1.514655 141.625899 21.779996 177.070605 2.020895 -1.154094 1.115154 -0.000001 0.000003 0.000004 9.109455 -0.517846 2.259877 -21.617040 -164.747523 250.026533 3.700074 0.000126 -0.000435 81.873512 -25.370364 22.110359 2.850017 0.000021 0.000317 199.077447 -166.651152 182.252711 2.774874 -0.000033 -0.000028 0.000000 -0.000002 -0.000001 9.533487 0.000313 -0.000028 132.603519 -11.628389 26.102065 3.700012 0.000028 -0.000316 215.535676 -178.978099 180.326748 2.950026 -0.000004 0.000031 149.752854 -180.702982 180.189324 2.952871 -0.000015 0.000074 -0.000000 0.000001 0.000001 9.104599 -0.042729 -1.865173 129.476659 -9.312480 19.589356 3.149955 0.000039 -0.000080 23.556691 23.180634 -4.897608 2.949990 -0.000016 0.000102 321.157899 15.076777 365.341874 2.644325 0.000016 0.000056 0.000000 0.000000 0.000000 8.077833 -0.486563 -3.806352 132.592318 -4.726116 11.927680 3.599924 0.000010 0.014638 15.881199 26.129198 -3.751562 2.100008 0.000017 0.007778 324.210229 20.498941 6.476278 2.125511 -0.000014 0.007511 -0.000001 0.000002 -0.000000 -8.207786 -6.751667 -1.599560 -0.077001 -0.000003 0.000080 -0.000002 -44.370110 0.345938 0.153719 -0.000000 -0.000000 0.000000 -44.423679 -3.043532 -0.076700 0.000000 -0.000002 -0.000006 -8.728667 10.710559 -0.000009 -0.000000 -0.000000 -0.000001 -0.000679 9.278123 0.000000 -0.000000 -0.000000 8.207792 -6.751710 -1.599556 -0.074518 -0.000003 0.000081 -0.000002 -44.370014 0.346960 0.148822 0.000002 0.000000 -0.000001 -44.423664 -3.044403 -0.074314 0.000000 -0.000002 -0.000004 -8.728671 10.710558 0.000007 -0.000000 -0.000000 0.000000 -0.000680 9.278137 -0.000000 0.000000 -0.000001 
